Coordinates
version=1
nRows=38
nColumns=38
inDegrees=no

Units are S.I. units (second, meters, Newtons, ...)
If the header above contains a line with 'inDegrees', this indicates whether rotational values are in degrees (yes) or radians (no).

endheader
time	pelvis_tilt	pelvis_list	pelvis_rotation	pelvis_tx	pelvis_ty	pelvis_tz	hip_flexion_r	hip_adduction_r	hip_rotation_r	knee_angle_r	ankle_angle_r	subtalar_angle_r	mtp_angle_r	hip_flexion_l	hip_adduction_l	hip_rotation_l	knee_angle_l	ankle_angle_l	subtalar_angle_l	mtp_angle_l	lumbar_extension	lumbar_bending	lumbar_rotation	arm_flex_r	arm_add_r	arm_rot_r	elbow_flex_r	pro_sup_r	wrist_flex_r	wrist_dev_r	arm_flex_l	arm_add_l	arm_rot_l	elbow_flex_l	pro_sup_l	wrist_flex_l	wrist_dev_l
1.38	-0.207998	1.39552	-1.43244	0.818162	-0.0908729	0.982223	-0.0168866	0.0231048	-0.188958	0.39027	0.15318	0	0	0.242146	-0.0348329	0.0726917	1.04485	-0.698132	0	0	-0.304104	0.0993943	0.0456066	0.27891	-0.463226	0.0344744	1.23761	0.981366	0	0	0.219562	-0.243067	-0.0918282	1.2289	0.970214	0	0
1.39	-0.169979	1.39203	-1.47297	0.818108	-0.101807	0.982984	-0.0390643	0.0163679	-0.186665	0.380743	0.162232	0	0	0.254224	-0.0323834	0.0647057	1.01318	-0.698132	0	0	-0.308829	0.0911139	0.0469974	0.281949	-0.46154	0.0343398	1.23588	0.983068	0	0	0.223139	-0.243948	-0.0916781	1.22749	0.970853	0	0
1.4	-0.13198	1.38894	-1.51278	0.818173	-0.112724	0.983463	-0.0586548	0.00885539	-0.184617	0.374927	0.171655	0	0	0.265305	-0.0294688	0.0570456	0.978023	-0.698132	0	0	-0.313109	0.0826596	0.04765	0.284506	-0.45962	0.0335742	1.2348	0.984407	0	0	0.226517	-0.24456	-0.0922877	1.2264	0.971449	0	0
1.41	-0.0970101	1.38636	-1.54885	0.818379	-0.123673	0.983674	-0.0757458	0.00126452	-0.182783	0.372689	0.181734	0	0	0.275389	-0.0267447	0.0495704	0.939101	-0.698132	0	0	-0.316664	0.0747471	0.0477552	0.286529	-0.457519	0.031773	1.23411	0.985437	0	0	0.22954	-0.244844	-0.0933894	1.22595	0.971172	0	0
1.42	-0.0621674	1.38331	-1.58386	0.818779	-0.134692	0.98374	-0.0921645	-0.00684138	-0.181532	0.372673	0.192956	0	0	0.282724	-0.0230119	0.043818	0.895311	-0.698132	0	0	-0.320476	0.0668685	0.0470254	0.288112	-0.455367	0.0291333	1.23381	0.987173	0	0	0.232298	-0.245242	-0.0944636	1.22671	0.970352	0	0
1.43	-0.0309616	1.38134	-1.61468	0.819292	-0.145873	0.983494	-0.106716	-0.0143802	-0.180138	0.374011	0.204253	0	0	0.289453	-0.019166	0.0396468	0.848051	-0.698132	0	0	-0.322479	0.0596998	0.0457569	0.289011	-0.45352	0.0267008	1.23362	0.990015	0	0	0.234285	-0.245733	-0.0954984	1.22808	0.970192	0	0
1.44	0.00414413	1.37942	-1.64881	0.819888	-0.157187	0.983087	-0.120694	-0.0229438	-0.179628	0.376435	0.215951	0	0	0.293275	-0.013057	0.0396064	0.795036	-0.698132	0	0	-0.323895	0.0515791	0.0436643	0.289557	-0.451431	0.0245977	1.23304	0.993712	0	0	0.235538	-0.246615	-0.095753	1.22929	0.972483	0	0
1.45	0.0402174	1.37785	-1.6833	0.820627	-0.16863	0.982502	-0.134148	-0.0318833	-0.180592	0.379035	0.228107	0	0	0.294278	-0.00530643	0.0442719	0.735635	-0.698132	0	0	-0.324461	0.0433	0.0410578	0.289522	-0.449315	0.0221424	1.23241	0.996997	0	0	0.236798	-0.247215	-0.0963486	1.23028	0.975346	0	0
1.46	0.0759608	1.3767	-1.71671	0.821561	-0.180239	0.981734	-0.147325	-0.040779	-0.1824	0.381418	0.240055	0	0	0.292306	0.00397944	0.0554487	0.669671	-0.698132	0	0	-0.324115	0.0353336	0.0378913	0.288655	-0.447434	0.0192841	1.23235	0.999859	0	0	0.237839	-0.247644	-0.0965486	1.23129	0.978569	0	0
1.47	0.115854	1.37506	-1.75331	0.822737	-0.191995	0.980886	-0.161252	-0.0509336	-0.185804	0.383416	0.251972	0	0	0.28448	0.0164395	0.0789254	0.593337	-0.698132	0	0	-0.323791	0.0266924	0.0337054	0.287328	-0.445339	0.0151187	1.23253	1.00476	0	0	0.238756	-0.248217	-0.0961117	1.2322	0.982556	0	0
1.48	0.164108	1.37107	-1.79847	0.824053	-0.203934	0.980198	-0.177387	-0.0639716	-0.19082	0.385438	0.26378	0	0	0.264028	0.033558	0.127539	0.497515	-0.698132	0	0	-0.325272	0.0156728	0.0291721	0.285795	-0.442976	0.01085	1.2325	1.01189	0	0	0.239807	-0.24903	-0.0958592	1.23277	0.986243	0	0
1.49	0.204662	1.36626	-1.83653	0.825413	-0.216098	0.979468	-0.1948	-0.0759964	-0.19621	0.387191	0.274551	0	0	0.230959	0.0485952	0.211811	0.381139	-0.698132	0	0	-0.327328	0.00585107	0.025126	0.284224	-0.441074	0.00716687	1.23259	1.02023	0	0	0.240149	-0.249519	-0.0960619	1.23329	0.989274	0	0
1.5	0.226226	1.36116	-1.85706	0.82662	-0.228593	0.978645	-0.214781	-0.0839322	-0.199921	0.385706	0.283096	0	0	0.176223	0.0508974	0.368753	0.22637	-0.698132	0	0	-0.329889	-0.0005471	0.022635	0.282552	-0.439566	0.00381654	1.23312	1.02809	0	0	0.239205	-0.249606	-0.0964584	1.23403	0.991432	0	0
1.51	0.187435	1.37154	-1.81594	0.827516	-0.241434	0.976062	-0.221999	-0.0718668	-0.196644	0.383747	0.289489	0	0	0.138368	0.0158834	0.547774	0.0721322	-0.698132	0	0	-0.317822	0.0105548	0.022197	0.278822	-0.440505	0.00280157	1.23484	1.02936	0	0	0.235061	-0.247848	-0.0977594	1.23428	0.9924	0	0
1.52	0.0945492	1.39621	-1.71846	0.828369	-0.254312	0.971849	-0.213777	-0.0459101	-0.188811	0.384528	0.295299	0	0	0.150128	-0.0271217	0.610495	2.4669e-07	-0.698132	0	0	-0.290637	0.0346128	0.0216346	0.27339	-0.443153	0.00325296	1.23709	1.02555	0	0	0.22917	-0.244399	-0.100006	1.23282	0.998312	0	0
1.53	-0.0376182	1.42012	-1.58004	0.829962	-0.26676	0.96699	-0.202456	-0.0175134	-0.180155	0.388757	0.299082	0	0	0.191944	-0.0513273	0.632873	0	-0.698132	0	0	-0.26189	0.0610243	0.0188809	0.268878	-0.446091	0.00448078	1.23831	1.02584	0	0	0.224509	-0.240961	-0.101698	1.2304	1.00419	0	0
1.54	-0.214528	1.44134	-1.39518	0.831684	-0.278863	0.962352	-0.18998	0.0083391	-0.174671	0.392812	0.304177	0	0	0.23627	-0.0751358	0.650725	0	-0.698132	0	0	-0.233151	0.0870218	0.0142746	0.264731	-0.448602	0.0052784	1.23852	1.02553	0	0	0.220988	-0.237748	-0.101525	1.22736	1.00943	0	0
1.55	-0.441632	1.45646	-1.16386	0.83241	-0.291907	0.957797	-0.178605	0.0324179	-0.17089	0.398176	0.309481	0	0	0.276159	-0.0994012	0.673013	0	-0.698132	0	0	-0.201704	0.109686	0.0104068	0.25932	-0.448189	0.00621046	1.23696	1.02367	0	0	0.215019	-0.236173	-0.102346	1.22368	1.0101	0	0
1.56	-0.726397	1.46681	-0.863395	0.835441	-0.303199	0.952847	-0.162368	0.055856	-0.166524	0.403412	0.313654	0	0	0.324333	-0.113553	0.681818	0	-0.698132	0	0	-0.175537	0.136292	-0.00269017	0.262054	-0.454814	0.00796357	1.23552	1.02104	0	0	0.217772	-0.231167	-0.101686	1.22279	1.00642	0	0
1.57	-0.990357	1.46656	-0.588313	0.837822	-0.315244	0.948371	-0.151529	0.0758025	-0.162936	0.410895	0.317582	0	0	0.362894	-0.125733	0.671581	0	-0.698132	0	0	-0.150846	0.157475	-0.0146877	0.265055	-0.459221	0.0113105	1.23263	1.0187	0	0	0.218451	-0.227986	-0.102408	1.22088	1.00437	0	0
1.58	-1.17476	1.46113	-0.398945	0.839626	-0.328013	0.94453	-0.146212	0.089395	-0.159547	0.420474	0.321141	0	0	0.389642	-0.135984	0.666896	0	-0.698132	0	0	-0.131028	0.172426	-0.0229103	0.267513	-0.461166	0.0176496	1.22839	1.01372	0	0	0.217031	-0.226377	-0.104048	1.21781	1.00327	0	0
1.59	-1.26204	1.45631	-0.318697	0.839967	-0.342161	0.941743	-0.149441	0.0939217	-0.153839	0.431346	0.324103	0	0	0.398643	-0.146919	0.678185	0	-0.698132	0	0	-0.117148	0.178004	-0.0213818	0.265852	-0.457015	0.0227176	1.22283	1.01005	0	0	0.211174	-0.227568	-0.106995	1.21256	1.00199	0	0
1.6	-1.29849	1.45303	-0.272728	0.843486	-0.354888	0.938897	-0.155645	0.0957867	-0.152276	0.444286	0.327337	0	0	0.406766	-0.142188	0.6615	0	-0.698132	0	0	-0.113023	0.183937	-0.0320341	0.271281	-0.461911	0.0233407	1.22209	1.01251	0	0	0.217989	-0.225628	-0.103369	1.21053	1.00053	0	0
1.61	-1.31829	1.45439	-0.268932	0.843635	-0.370517	0.936556	-0.162764	0.0872815	-0.145625	0.461571	0.331165	0	0	0.408056	-0.151816	0.684362	0	-0.698132	0	0	-0.103743	0.180025	-0.0221595	0.264832	-0.456892	0.0243907	1.2199	1.01135	0	0	0.210768	-0.228149	-0.103591	1.20495	0.997814	0	0
1.62	-1.211	1.45886	-0.381663	0.845341	-0.385499	0.935247	-0.183247	0.0717184	-0.141778	0.47865	0.333602	0	0	0.38684	-0.143141	0.686007	0	-0.698132	0	0	-0.112347	0.168659	-0.0181949	0.262785	-0.455302	0.0212767	1.2196	1.0125	0	0	0.213575	-0.230916	-0.0984758	1.20267	0.995446	0	0
1.63	-0.938634	1.46276	-0.662897	0.846383	-0.400963	0.935489	-0.218982	0.0447118	-0.134644	0.494854	0.333615	0	0	0.336447	-0.120882	0.661375	0	-0.698132	0	0	-0.137452	0.14355	-0.00910091	0.260655	-0.45058	0.0152852	1.21758	1.01413	0	0	0.219128	-0.236139	-0.0919803	1.20269	0.993046	0	0
1.64	-0.713201	1.46279	-0.902492	0.846985	-0.417307	0.934859	-0.244818	0.0161392	-0.130182	0.517135	0.333915	0	0	0.298579	-0.105151	0.652032	0	-0.698132	0	0	-0.152034	0.119273	0.00201931	0.255698	-0.445371	0.0112018	1.21614	1.01419	0	0	0.218094	-0.241499	-0.0883557	1.20479	0.989983	0	0
1.65	-0.507306	1.45969	-1.12737	0.846812	-0.434341	0.933964	-0.264945	-0.0153619	-0.128486	0.545506	0.332466	0	0	0.260722	-0.0907427	0.649915	0	-0.698132	0	0	-0.15957	0.0926822	0.015142	0.248842	-0.43755	0.0099067	1.21208	1.01259	0	0	0.211633	-0.247941	-0.0887862	1.20762	0.986835	0	0
1.66	-0.363033	1.45727	-1.28495	0.847592	-0.450471	0.932186	-0.27286	-0.0438198	-0.127925	0.581141	0.327496	0	0	0.236473	-0.0751808	0.650052	0	-0.698132	0	0	-0.163315	0.0720676	0.0227177	0.246327	-0.433558	0.0106326	1.20761	1.01227	0	0	0.20732	-0.252138	-0.08971	1.21284	0.983595	0	0
1.67	-0.28562	1.45801	-1.37373	0.849235	-0.465932	0.929548	-0.268792	-0.0666878	-0.125639	0.624526	0.31772	0	0	0.225325	-0.0644094	0.651873	0	-0.698132	0	0	-0.159777	0.0591149	0.0277444	0.244566	-0.430684	0.0113169	1.20344	1.01272	0	0	0.201903	-0.2543	-0.0922208	1.21765	0.980133	0	0
1.68	-0.239159	1.46319	-1.42957	0.851128	-0.481366	0.926884	-0.253062	-0.085844	-0.117949	0.675267	0.300136	0	0	0.224218	-0.0562402	0.646115	0	-0.698132	0	0	-0.150571	0.050493	0.0311936	0.242544	-0.428468	0.0106922	1.19957	1.00757	0	0	0.197146	-0.254262	-0.0943939	1.22069	0.974243	0	0
1.69	-0.1173	1.46481	-1.56092	0.853842	-0.495553	0.925674	-0.235448	-0.111202	-0.101227	0.73027	0.269911	0	0	0.219293	-0.039769	0.619327	0	-0.698132	0	0	-0.150285	0.0359223	0.0368637	0.24154	-0.426789	0.00767238	1.19741	0.997814	0	0	0.198365	-0.252907	-0.0935837	1.22018	0.973459	0	0
1.7	0.0561496	1.47663	-1.73594	0.85639	-0.509386	0.924333	-0.19817	-0.136638	-0.0863661	0.794744	0.232031	0	0	0.231841	-0.0357307	0.65967	0	-0.698132	0	0	-0.135356	0.017317	0.0377783	0.23588	-0.425222	0.00298512	1.19751	0.99722	0	0	0.201238	-0.251648	-0.0899162	1.21412	0.976436	0	0
1.71	0.303036	1.45002	-1.99917	0.857316	-0.522614	0.92721	-0.191444	-0.178151	-0.0552846	0.850928	0.180976	0	0	0.203656	0.0122326	0.594473	0.00836472	-0.698132	0	0	-0.157785	-0.0231402	0.0523229	0.237771	-0.417947	-0.00267588	1.19262	1.00413	0	0	0.21176	-0.257396	-0.0811616	1.20794	0.978567	0	0
1.72	0.449438	1.43049	-2.15724	0.858659	-0.535444	0.928966	-0.171694	-0.20861	-0.0227232	0.909393	0.130984	0	0	0.205892	0.0538664	0.537424	0.0663344	-0.698132	0	0	-0.169422	-0.0545359	0.0637313	0.239301	-0.414972	-0.00751979	1.18959	1.02304	0	0	0.221264	-0.262489	-0.0704523	1.20227	0.978818	0	0
1.73	0.531303	1.41411	-2.2491	0.859821	-0.548382	0.930437	-0.151297	-0.228278	0.0107958	0.963295	0.0858514	0	0	0.205951	0.0847292	0.489557	0.10997	-0.698132	0	0	-0.178027	-0.0780344	0.073264	0.23998	-0.413964	-0.00858768	1.18657	1.03081	0	0	0.227978	-0.267068	-0.0624224	1.19875	0.977774	0	0
1.74	0.581762	1.40367	-2.30712	0.8611	-0.561391	0.931405	-0.128849	-0.238035	0.0431522	1.01303	0.050996	0	0	0.208548	0.107362	0.440058	0.147686	-0.698132	0	0	-0.181744	-0.0935097	0.0793185	0.239214	-0.413621	-0.00713635	1.18437	1.02981	0	0	0.230176	-0.270788	-0.0580457	1.19931	0.975647	0	0
1.75	0.618548	1.40079	-2.34768	0.862748	-0.574444	0.931801	-0.103707	-0.238053	0.0722593	1.05774	0.0285678	0	0	0.214801	0.122103	0.400649	0.180504	-0.698132	0	0	-0.179639	-0.100529	0.0807659	0.237412	-0.413445	-0.00569386	1.18446	1.02375	0	0	0.227266	-0.272429	-0.0589117	1.20445	0.973038	0	0
